<svg width="127" height="37" viewBox="0 0 127 37" fill="none" xmlns="http://www.w3.org/2000/svg">
<path d="M104.47 36.9998C102.77 36.9998 101.32 36.5998 99.8199 35.8998L100.97 30.1999C102.07 30.7499 103.17 31.1499 104.52 31.1499C106.22 31.1499 108.489 30.5732 108.978 28.6142C109.233 27.5308 109.149 26.3954 108.738 25.3613L98.9199 0.699951H106.22L111.77 16.0499C112.17 17.1499 112.57 18.2499 112.77 19.4999H113.02C113.17 18.2499 113.57 17.1499 113.97 16.0499L119.62 0.699951H126.77L116.12 27.5499C113.57 33.9998 109.67 36.9998 104.47 36.9998Z" fill="currentColor"/>
<path d="M74.7002 26.8999V0.699996H81.3502V5.39998H81.5502C82.9002 1.99999 85.8002 0 89.7501 0C95.9001 0 99.4001 4.39999 99.4001 10.45V26.8999H92.4501V11.75C92.4501 8.29997 90.5001 5.89998 87.2002 5.89998C83.9002 5.89998 81.6502 8.34997 81.6502 12V26.8999H74.7002Z" fill="currentColor"/>
<path d="M56.4399 26.8995V0.699556H62.8899V7.49954H63.0399C64.0399 3.04955 66.9399 0.299561 70.3899 0.299561C71.0899 0.299561 71.8399 0.49956 72.3899 0.649558L71.2899 7.54954C70.8399 7.44954 70.0399 7.29954 69.2899 7.29954C65.6399 7.29954 63.3899 10.1495 63.3899 15.0495V26.8995H56.4399Z" fill="currentColor"/>
<path d="M40.7503 27.5999C32.9504 27.5999 27.1504 21.7999 27.1504 13.8C27.1504 5.84998 32.9504 0 40.7503 0C48.5003 0 54.3003 5.84998 54.3003 13.8C54.3003 21.7999 48.5003 27.5999 40.7503 27.5999ZM40.7503 21.7499C44.5503 21.7499 47.3003 18.5999 47.3003 13.8C47.3003 8.99997 44.5503 5.89998 40.7503 5.89998C36.9004 5.89998 34.1504 8.99997 34.1504 13.8C34.1504 18.5999 36.9004 21.7499 40.7503 21.7499Z" fill="currentColor"/>
<path d="M13.45 27.5999C5.84998 27.5999 0 21.8499 0 13.8C0 5.79998 5.84998 0 13.45 0C19.9499 0 24.6999 3.79999 26.3499 9.09997L19.6499 10.55C18.7499 7.89997 16.7499 5.89998 13.5 5.89998C9.74997 5.89998 6.99998 9.29997 6.99998 13.8C6.99998 18.2999 9.74997 21.7499 13.5 21.7499C16.7499 21.7499 18.7499 19.7499 19.6499 17.0999L26.3499 18.4999C24.6999 23.7999 19.9499 27.5999 13.45 27.5999Z" fill="currentColor"/>
</svg>
