<svg width="25" height="24" viewBox="0 0 25 24" fill="none" xmlns="http://www.w3.org/2000/svg">
<rect x="0.333008" width="24" height="24" rx="4" fill="#FFEBEB"/>
<path fill-rule="evenodd" clip-rule="evenodd" d="M6.09188 3.5304C7.14968 3 8.53042 3 11.2919 3H12.9245C15.6859 3 17.0667 3 18.1245 3.5304C19.0881 4.01357 19.8698 4.79524 20.3529 5.75887C20.8833 6.81667 20.8833 8.19741 20.8833 10.9589V13.7336C20.8833 13.9046 20.8833 13.9901 20.8813 14.0624C20.8046 16.7104 18.676 18.839 16.028 18.9157C15.9557 18.9177 15.8702 18.9177 15.6992 18.9177C15.6737 18.9177 15.6609 18.9177 15.6487 18.9179C15.2176 18.9249 14.8103 19.1171 14.5308 19.4455C14.5229 19.4548 14.5148 19.4646 14.4986 19.4843L13.9608 20.1374C13.3254 20.9089 13.0077 21.2947 12.6264 21.4351C12.2919 21.5582 11.9245 21.5582 11.59 21.4351C11.2086 21.2947 10.8909 20.9089 10.2555 20.1374L9.71773 19.4843L9.71768 19.4843C9.7015 19.4646 9.6934 19.4548 9.68551 19.4455C9.40603 19.1171 8.99876 18.9249 8.56762 18.9179C8.55544 18.9177 8.54269 18.9177 8.51718 18.9177C8.34618 18.9177 8.26068 18.9177 8.18838 18.9157C5.54038 18.839 3.41173 16.7104 3.3351 14.0624C3.33301 13.9901 3.33301 13.9046 3.33301 13.7336V10.9589C3.33301 8.19741 3.33301 6.81667 3.8634 5.75887C4.34658 4.79524 5.12825 4.01357 6.09188 3.5304ZM8.43486 9.80072C7.79524 9.80072 7.27672 10.3192 7.27672 10.9589C7.27672 11.5985 7.79524 12.117 8.43486 12.117C9.07449 12.117 9.59301 11.5985 9.59301 10.9589C9.59301 10.3192 9.07449 9.80072 8.43486 9.80072ZM12.1082 9.80072C11.4686 9.80072 10.95 10.3192 10.95 10.9589C10.95 11.5985 11.4686 12.117 12.1082 12.117C12.7478 12.117 13.2663 11.5985 13.2663 10.9589C13.2663 10.3192 12.7478 9.80072 12.1082 9.80072ZM15.7815 9.80072C15.1419 9.80072 14.6234 10.3192 14.6234 10.9589C14.6234 11.5985 15.1419 12.117 15.7815 12.117C16.4211 12.117 16.9397 11.5985 16.9397 10.9589C16.9397 10.3192 16.4211 9.80072 15.7815 9.80072Z" fill="#FF524F"/>
</svg>
