<svg width="71" height="20" viewBox="0 0 71 20" fill="none" xmlns="http://www.w3.org/2000/svg">
<path d="M58.0888 19.9997C57.1699 19.9997 56.3861 19.7835 55.5753 19.4051L56.197 16.3241C56.7915 16.6214 57.3861 16.8376 58.1158 16.8376C59.0348 16.8376 60.2611 16.5259 60.5258 15.467C60.6636 14.8814 60.6181 14.2677 60.3956 13.7087L55.0889 0.378418H59.0348L62.0347 8.67559C62.2509 9.27017 62.4671 9.86476 62.5752 10.5404H62.7104C62.7915 9.86476 63.0077 9.27017 63.2239 8.67559L66.2779 0.378418H70.1427L64.386 14.8917C63.0077 18.3781 60.8996 19.9997 58.0888 19.9997Z" fill="black"/>
<path d="M41.4141 14.5403V0.378372H45.0086V2.91887H45.1167C45.8464 1.08106 47.414 0 49.5491 0C52.8733 0 54.7652 2.37834 54.7652 5.64856V14.5403H51.0085V6.35125C51.0085 4.48642 49.9545 3.18914 48.1707 3.18914C46.387 3.18914 45.1708 4.51344 45.1708 6.48639V14.5403H41.4141Z" fill="black"/>
<path d="M31.2734 14.5398V0.377832H34.7599V4.05345H34.8409C35.3815 1.64808 36.949 0.161621 38.8139 0.161621C39.1922 0.161621 39.5976 0.269728 39.8949 0.350806L39.3003 4.08048C39.0571 4.02643 38.6247 3.94534 38.2193 3.94534C36.2463 3.94534 35.0301 5.48586 35.0301 8.13447V14.5398H31.2734Z" fill="black"/>
<path d="M22.7926 14.9187C18.5765 14.9187 15.4414 11.7836 15.4414 7.45934C15.4414 3.16211 18.5765 0 22.7926 0C26.9818 0 30.1169 3.16211 30.1169 7.45934C30.1169 11.7836 26.9818 14.9187 22.7926 14.9187ZM22.7926 11.7566C24.8467 11.7566 26.3331 10.0539 26.3331 7.45934C26.3331 4.86479 24.8467 3.18914 22.7926 3.18914C20.7116 3.18914 19.2251 4.86479 19.2251 7.45934C19.2251 10.0539 20.7116 11.7566 22.7926 11.7566Z" fill="black"/>
<path d="M8.03578 14.9187C3.92774 14.9187 0.765625 11.8106 0.765625 7.45934C0.765625 3.13509 3.92774 0 8.03578 0C11.5492 0 14.1168 2.05402 15.0086 4.91884L11.3871 5.70261C10.9006 4.2702 9.81954 3.18914 8.06281 3.18914C6.03581 3.18914 4.54935 5.02695 4.54935 7.45934C4.54935 9.89174 6.03581 11.7566 8.06281 11.7566C9.81954 11.7566 10.9006 10.6755 11.3871 9.2431L15.0086 9.99985C14.1168 12.8647 11.5492 14.9187 8.03578 14.9187Z" fill="black"/>
</svg>
