<svg width="32" height="32" viewBox="0 0 32 32" fill="none" xmlns="http://www.w3.org/2000/svg">
<path d="M17.3337 15.9998C17.3337 16.7362 16.7367 17.3332 16.0003 17.3332C15.2639 17.3332 14.667 16.7362 14.667 15.9998C14.667 15.2634 15.2639 14.6665 16.0003 14.6665C16.7367 14.6665 17.3337 15.2634 17.3337 15.9998Z" fill="black"/>
<path d="M11.9997 15.9998C11.9997 16.7362 11.4027 17.3332 10.6663 17.3332C9.92997 17.3332 9.33301 16.7362 9.33301 15.9998C9.33301 15.2634 9.92997 14.6665 10.6663 14.6665C11.4027 14.6665 11.9997 15.2634 11.9997 15.9998Z" fill="black"/>
<path d="M22.6667 15.9998C22.6667 16.7362 22.0697 17.3332 21.3333 17.3332C20.5969 17.3332 20 16.7362 20 15.9998C20 15.2634 20.5969 14.6665 21.3333 14.6665C22.0697 14.6665 22.6667 15.2634 22.6667 15.9998Z" fill="black"/>
</svg>
