<svg width="25" height="24" viewBox="0 0 25 24" fill="none" xmlns="http://www.w3.org/2000/svg">
<path d="M20.5 21H4.5M16.5 4C16.25 5.75 17.75 7.25 19.5 7M7.5 16L8.07005 13.7198C8.23008 13.0797 8.3101 12.7596 8.43877 12.4612C8.55301 12.1963 8.69557 11.9445 8.86397 11.7102C9.05366 11.4464 9.28694 11.2131 9.75351 10.7465L17.0001 3.49998C17.0798 3.42036 17.1196 3.38054 17.1548 3.3485C17.9177 2.65508 19.0826 2.6551 19.8454 3.34854C19.8807 3.38058 19.9205 3.4204 20.0001 3.50003V3.50003C20.0797 3.57966 20.1195 3.61947 20.1516 3.65472C20.845 4.41755 20.8449 5.58244 20.1515 6.34525C20.1195 6.3805 20.0797 6.42031 20.0001 6.49994L12.7535 13.7465C12.2869 14.2131 12.0536 14.4464 11.7898 14.636C11.5555 14.8044 11.3037 14.947 11.0388 15.0612C10.7404 15.1899 10.4203 15.2699 9.78023 15.4299L7.5 16Z" stroke="white" stroke-width="1.5" stroke-linecap="round" stroke-linejoin="round"/>
</svg>
