<svg width="24" height="24" viewBox="0 0 24 24" fill="none" xmlns="http://www.w3.org/2000/svg">
<path fill-rule="evenodd" clip-rule="evenodd" d="M19.6187 5.80953C19.6187 6.14498 19.5753 6.47031 19.4939 6.78021C21.1697 6.95579 22.4758 8.37298 22.4758 10.0952C22.4758 11.9362 21.4596 13.4286 19.6187 13.4286C18.9709 13.4286 18.4804 13.0819 18.0658 12.6245C17.5493 12.0547 16.6993 11.8127 15.9741 12.0688C15.3524 12.2884 14.6875 12.4762 14.3806 12.4762C13.7311 12.4762 13.2129 11.9588 12.8077 11.3152C12.304 10.5152 11.3169 10.2616 10.5743 10.8466C10.0975 11.2223 9.59736 11.5238 9.14249 11.5238C8.84322 11.5238 8.56896 11.4163 8.30797 11.2675C7.67607 10.9073 6.96004 11.0518 6.48501 11.6026C6.05875 12.0969 5.551 12.4762 4.85677 12.4762C3.01582 12.4762 1.52344 10.9838 1.52344 9.14286C1.52344 7.30191 3.01582 5.80953 4.85677 5.80953C5.09516 5.80953 5.3277 5.83455 5.55191 5.88211C6.11926 4.17974 7.72564 2.95238 9.61868 2.95238C10.7022 2.95238 11.6919 3.35451 12.4465 4.01766C13.0876 2.81702 14.353 2 15.8092 2C17.9131 2 19.6187 3.70558 19.6187 5.80953Z" fill="#A0A1AB"/>
<path fill-rule="evenodd" clip-rule="evenodd" d="M5.02947 13.815L6.28558 20.0955C6.28558 21.1475 7.13837 22.0003 8.19034 22.0003H15.8094C16.8614 22.0003 17.7142 21.1475 17.7142 20.0955L18.8246 14.5432C18.2884 14.3613 17.828 13.9817 17.4014 13.5768C17.0049 13.2004 16.4322 13.0626 15.8987 13.182C15.3274 13.3098 14.6627 13.4289 14.3808 13.4289C13.2648 13.315 12.7408 12.7924 12.3131 12.1955C11.9246 11.6534 11.262 11.5124 10.7485 11.9379C10.404 12.2234 10.0456 12.4765 9.61891 12.4765C9.27204 12.4765 8.80958 12.4427 8.37512 12.3781C7.83274 12.2974 7.26173 12.4353 6.84027 12.7861C6.30756 13.2294 5.68171 13.6394 5.02947 13.815Z" fill="#A0A1AB"/>
</svg>
