<svg width="24" height="24" viewBox="0 0 24 24" fill="none" xmlns="http://www.w3.org/2000/svg">
<path fill-rule="evenodd" clip-rule="evenodd" d="M7.25 2C7.25 1.58579 7.58579 1.25 8 1.25H16C16.4142 1.25 16.75 1.58579 16.75 2C16.75 2.41421 16.4142 2.75 16 2.75H8C7.58579 2.75 7.25 2.41421 7.25 2ZM5.25 5C5.25 4.58579 5.58579 4.25 6 4.25H18C18.4142 4.25 18.75 4.58579 18.75 5C18.75 5.41421 18.4142 5.75 18 5.75H6C5.58579 5.75 5.25 5.41421 5.25 5ZM8.36701 7.25H8.4H15.6H15.633H15.633H15.633C16.7252 7.24999 17.5906 7.24999 18.2883 7.30699C19.0017 7.36527 19.6053 7.48688 20.1565 7.76772C21.0502 8.22312 21.7769 8.94978 22.2323 9.84354C22.5131 10.3947 22.6347 10.9983 22.693 11.7117C22.75 12.4094 22.75 13.2748 22.75 14.367V14.4V15.6V15.633C22.75 16.7252 22.75 17.5906 22.693 18.2883C22.6347 19.0017 22.5131 19.6053 22.2323 20.1565C21.7769 21.0502 21.0502 21.7769 20.1565 22.2323C19.6053 22.5131 19.0017 22.6347 18.2883 22.693C17.5906 22.75 16.7252 22.75 15.633 22.75H15.6H8.4H8.36698C7.27484 22.75 6.40935 22.75 5.71173 22.693C4.99834 22.6347 4.39472 22.5131 3.84354 22.2323C2.94978 21.7769 2.22312 21.0502 1.76772 20.1565C1.48688 19.6053 1.36527 19.0017 1.30699 18.2883C1.24999 17.5906 1.24999 16.7251 1.25 15.633V15.6V14.4V14.367C1.24999 13.2749 1.24999 12.4094 1.30699 11.7117C1.36527 10.9983 1.48688 10.3947 1.76772 9.84354C2.22312 8.94978 2.94978 8.22312 3.84354 7.76772C4.39472 7.48688 4.99834 7.36527 5.71173 7.30699C6.40935 7.24999 7.27484 7.24999 8.36698 7.25H8.36699H8.36701ZM10 13.9896V16.0104C10 16.9815 10 17.4671 10.2025 17.7348C10.3789 17.968 10.6485 18.1123 10.9404 18.1297C11.2754 18.1497 11.6795 17.8804 12.4875 17.3417L14.0031 16.3313C14.6708 15.8862 15.0046 15.6636 15.1209 15.3831C15.2227 15.1378 15.2227 14.8622 15.1209 14.6169C15.0046 14.3364 14.6708 14.1138 14.0031 13.6687L12.4875 12.6583C11.6795 12.1196 11.2754 11.8503 10.9404 11.8703C10.6485 11.8877 10.3789 12.032 10.2025 12.2652C10 12.5329 10 13.0185 10 13.9896Z" fill="black"/>
</svg>
