<svg width="25" height="24" viewBox="0 0 25 24" fill="none" xmlns="http://www.w3.org/2000/svg">
<path d="M20.045 10.5585C20.1384 11.0954 20.1849 11.6395 20.184 12.1845C20.184 14.6185 19.314 16.6765 17.8 18.0695H17.802C16.478 19.2925 14.658 20.0005 12.5 20.0005C10.3783 20.0005 8.34344 19.1576 6.84315 17.6573C5.34285 16.157 4.5 14.1222 4.5 12.0005C4.5 9.87875 5.34285 7.84391 6.84315 6.34362C8.34344 4.84333 10.3783 4.00048 12.5 4.00048C14.4857 3.97836 16.4032 4.72429 17.852 6.08248L15.568 8.36648C14.7422 7.57973 13.6404 7.14879 12.5 7.16648C10.413 7.16648 8.64 8.57448 8.008 10.4705C7.6735 11.4641 7.6735 12.5399 8.008 13.5335H8.011C8.646 15.4265 10.416 16.8345 12.503 16.8345C13.581 16.8345 14.507 16.5585 15.225 16.0705H15.222C15.639 15.7944 15.9957 15.4366 16.2705 15.0188C16.5453 14.6009 16.7326 14.1317 16.821 13.6395H12.5V10.5595L20.045 10.5585Z" fill="black"/>
</svg>
