<svg width="24" height="24" viewBox="0 0 24 24" fill="none" xmlns="http://www.w3.org/2000/svg">
<path fill-rule="evenodd" clip-rule="evenodd" d="M2.75 12C2.75 10.7988 2.97895 9.65112 3.3956 8.59815L8.48231 15.25L3.33707 15.25C2.95756 14.2389 2.75 13.1437 2.75 12ZM6.96 10.79L4.14638 7.1106C5.77994 4.49223 8.68651 2.75 12 2.75C12.2884 2.75 12.5737 2.7632 12.8554 2.78903L6.96 10.79ZM11.4316 7.25L14.4963 3.09076C16.7979 3.73431 18.7371 5.24576 19.9389 7.25L11.4316 7.25ZM15.5177 8.75L20.6629 8.75C21.0424 9.76111 21.25 10.8563 21.25 12C21.25 13.2012 21.021 14.3489 20.6044 15.4019L15.5177 8.75ZM17.04 13.2101L19.8536 16.8894C18.2201 19.5078 15.3135 21.25 12 21.25C11.7116 21.25 11.4263 21.2368 11.1446 21.211L17.04 13.2101ZM12.5684 16.75L9.50369 20.9092C7.2021 20.2657 5.26287 18.7542 4.06111 16.75L12.5684 16.75ZM12 1.25C6.06294 1.25 1.25 6.06294 1.25 12C1.25 17.9371 6.06294 22.75 12 22.75C17.9371 22.75 22.75 17.9371 22.75 12C22.75 6.06294 17.9371 1.25 12 1.25Z" fill="#2F384C"/>
</svg>
