<svg width="24" height="24" viewBox="0 0 24 24" fill="none" xmlns="http://www.w3.org/2000/svg">
<path fill-rule="evenodd" clip-rule="evenodd" d="M2.88803 1.57698C3.52976 1.25 4.36984 1.25 6.05 1.25H8.78024C9.58187 1.25 9.98268 1.25 10.3446 1.34146C10.9426 1.49262 11.4795 1.82444 11.8821 2.29174C12.1258 2.57451 12.305 2.933 12.6635 3.65C12.9025 4.128 13.022 4.36699 13.1845 4.55551C13.4529 4.86704 13.8108 5.08825 14.2095 5.18902C14.4508 5.25 14.718 5.25 15.2524 5.25H16.35C18.5902 5.25 19.7103 5.25 20.566 5.68597C21.3186 6.06947 21.9305 6.68139 22.314 7.43404C22.75 8.28968 22.75 9.40979 22.75 11.65V16.35C22.75 18.5902 22.75 19.7103 22.314 20.566C21.9305 21.3186 21.3186 21.9305 20.566 22.314C19.7103 22.75 18.5902 22.75 16.35 22.75H7.65C5.40979 22.75 4.28969 22.75 3.43404 22.314C2.68139 21.9305 2.06947 21.3186 1.68597 20.566C1.25 19.7103 1.25 18.5902 1.25 16.35V6.05C1.25 4.36984 1.25 3.52976 1.57698 2.88803C1.8646 2.32354 2.32354 1.8646 2.88803 1.57698ZM17.5 9.25C16.8096 9.25 16.25 9.80964 16.25 10.5C16.25 11.1904 16.8096 11.75 17.5 11.75C18.1904 11.75 18.75 11.1904 18.75 10.5C18.75 9.80964 18.1904 9.25 17.5 9.25ZM9.75 14C9.75 12.7574 10.7574 11.75 12 11.75C13.2426 11.75 14.25 12.7574 14.25 14C14.25 15.2426 13.2426 16.25 12 16.25C10.7574 16.25 9.75 15.2426 9.75 14ZM12 10.25C9.92893 10.25 8.25 11.9289 8.25 14C8.25 16.0711 9.92893 17.75 12 17.75C14.0711 17.75 15.75 16.0711 15.75 14C15.75 11.9289 14.0711 10.25 12 10.25Z" fill="black"/>
</svg>
