<svg width="24" height="24" viewBox="0 0 24 24" fill="none" xmlns="http://www.w3.org/2000/svg">
<path fill-rule="evenodd" clip-rule="evenodd" d="M10.1186 2.63788C8.5271 1.66527 7.73133 1.17897 7.07571 1.23632C6.50412 1.28632 5.98153 1.57941 5.64081 2.04106C5.25 2.57059 5.25 3.50319 5.25 5.36838V18.6314C5.25 20.4966 5.25 21.4292 5.64081 21.9587C5.98153 22.4204 6.50412 22.7135 7.07571 22.7635C7.73133 22.8208 8.5271 22.3345 10.1186 21.3619L20.9702 14.7304C22.4475 13.8276 23.1861 13.3762 23.438 12.7951C23.6578 12.2877 23.6578 11.712 23.438 11.2047C23.1861 10.6236 22.4475 10.1722 20.9702 9.26939L10.1186 2.63788Z" fill="#2F384C"/>
</svg>
