<svg width="25" height="24" viewBox="0 0 25 24" fill="none" xmlns="http://www.w3.org/2000/svg">
<path d="M4.5 10H20.5L19.5 20C19.5 21.1046 18.6046 22 17.5 22H7.5C6.39543 22 5.5 21.1046 5.5 20L4.5 10Z" fill="#D1D1D6"/>
<path fill-rule="evenodd" clip-rule="evenodd" d="M8.58469 20.5934C8.25665 20.6402 7.95273 20.4123 7.90587 20.0843L7.02906 13.9466C6.98219 13.6185 7.21013 13.3146 7.53817 13.2678C7.86621 13.2209 8.17013 13.4488 8.217 13.7769L9.09381 19.9146C9.14067 20.2426 8.91273 20.5465 8.58469 20.5934ZM12.4998 20.6697C12.1685 20.6697 11.8998 20.4011 11.8998 20.0697V11.4994C11.8998 11.168 12.1685 10.8994 12.4998 10.8994C12.8312 10.8994 13.0998 11.168 13.0998 11.4994V20.0697C13.0998 20.4011 12.8312 20.6697 12.4998 20.6697ZM16.415 20.5934C16.743 20.6402 17.0469 20.4123 17.0938 20.0843L17.9706 13.9466C18.0175 13.6185 17.7895 13.3146 17.4615 13.2678C17.1335 13.2209 16.8295 13.4488 16.7827 13.7769L15.9059 19.9146C15.859 20.2426 16.0869 20.5465 16.415 20.5934Z" fill="white"/>
<mask id="path-3-inside-1_2189_3577" fill="white">
<path fill-rule="evenodd" clip-rule="evenodd" d="M20.5 5C20.5 5.35223 20.4545 5.69382 20.369 6.01922C22.1285 6.20357 23.5 7.69163 23.5 9.5C23.5 11.433 21.933 13 20 13C18.8169 13 17.7708 12.4129 17.1373 11.5142C16.6665 11.8214 16.1041 12 15.5 12C14.2298 12 13.1439 11.2106 12.7063 10.0956C11.9532 10.6634 11.0159 11 10 11C9.23735 11 8.51902 10.8103 7.88961 10.4755C7.25907 11.396 6.20007 12 5 12C3.067 12 1.5 10.433 1.5 8.5C1.5 6.567 3.067 5 5 5C5.2503 5 5.49447 5.02627 5.72989 5.07622C6.32561 3.28873 8.01231 2 10 2C11.1377 2 12.1769 2.42223 12.9692 3.11854C13.6424 1.85787 14.971 1 16.5 1C18.7091 1 20.5 2.79086 20.5 5Z"/>
</mask>
<path fill-rule="evenodd" clip-rule="evenodd" d="M20.5 5C20.5 5.35223 20.4545 5.69382 20.369 6.01922C22.1285 6.20357 23.5 7.69163 23.5 9.5C23.5 11.433 21.933 13 20 13C18.8169 13 17.7708 12.4129 17.1373 11.5142C16.6665 11.8214 16.1041 12 15.5 12C14.2298 12 13.1439 11.2106 12.7063 10.0956C11.9532 10.6634 11.0159 11 10 11C9.23735 11 8.51902 10.8103 7.88961 10.4755C7.25907 11.396 6.20007 12 5 12C3.067 12 1.5 10.433 1.5 8.5C1.5 6.567 3.067 5 5 5C5.2503 5 5.49447 5.02627 5.72989 5.07622C6.32561 3.28873 8.01231 2 10 2C11.1377 2 12.1769 2.42223 12.9692 3.11854C13.6424 1.85787 14.971 1 16.5 1C18.7091 1 20.5 2.79086 20.5 5Z" fill="white"/>
<path d="M20.369 6.01922L19.4018 5.76512C19.3277 6.04729 19.3805 6.34776 19.5463 6.58777C19.7122 6.82777 19.9746 6.98337 20.2648 7.01377L20.369 6.01922ZM17.1373 11.5142L17.9547 10.9381C17.6445 10.4981 17.0417 10.3826 16.5908 10.6768L17.1373 11.5142ZM12.7063 10.0956L13.6372 9.73023C13.523 9.43916 13.2792 9.21828 12.9783 9.13325C12.6774 9.04822 12.354 9.10882 12.1044 9.29705L12.7063 10.0956ZM7.88961 10.4755L8.35926 9.59261C7.90974 9.35348 7.35232 9.49029 7.06459 9.91036L7.88961 10.4755ZM5.72989 5.07622L5.52237 6.05445C6.02008 6.16003 6.51772 5.87508 6.67859 5.39239L5.72989 5.07622ZM12.9692 3.11854L12.3091 3.86971C12.5385 4.07131 12.8475 4.15702 13.1479 4.10245C13.4484 4.04787 13.7075 3.85897 13.8513 3.58958L12.9692 3.11854ZM21.3362 6.27332C21.4433 5.8657 21.5 5.43873 21.5 5H19.5C19.5 5.26573 19.4657 5.52194 19.4018 5.76512L21.3362 6.27332ZM24.5 9.5C24.5 7.17431 22.7365 5.2618 20.4732 5.02466L20.2648 7.01377C21.5205 7.14534 22.5 8.20894 22.5 9.5H24.5ZM20 14C22.4853 14 24.5 11.9853 24.5 9.5H22.5C22.5 10.8807 21.3807 12 20 12V14ZM16.32 12.0904C17.1328 13.2434 18.478 14 20 14V12C19.1557 12 18.4089 11.5824 17.9547 10.9381L16.32 12.0904ZM16.5908 10.6768C16.2776 10.8811 15.9042 11 15.5 11V13C16.304 13 17.0554 12.7617 17.6838 12.3517L16.5908 10.6768ZM15.5 11C14.6548 11 13.9296 10.4753 13.6372 9.73023L11.7755 10.4609C12.3582 11.9458 13.8048 13 15.5 13V11ZM10 12C11.2405 12 12.3877 11.5881 13.3083 10.8941L12.1044 9.29705C11.5186 9.73862 10.7913 10 10 10V12ZM7.41997 11.3583C8.19044 11.7682 9.06963 12 10 12V10C9.40508 10 8.84759 9.85238 8.35926 9.59261L7.41997 11.3583ZM5 13C6.54384 13 7.90563 12.2217 8.71463 11.0406L7.06459 9.91036C6.6125 10.5704 5.85629 11 5 11V13ZM0.5 8.5C0.5 10.9853 2.51472 13 5 13V11C3.61929 11 2.5 9.88071 2.5 8.5H0.5ZM5 4C2.51472 4 0.5 6.01472 0.5 8.5H2.5C2.5 7.11929 3.61929 6 5 6V4ZM5.93741 4.09799C5.63418 4.03366 5.32047 4 5 4V6C5.18014 6 5.35476 6.01889 5.52237 6.05445L5.93741 4.09799ZM10 1C7.56906 1 5.50892 2.57646 4.78119 4.76004L6.67859 5.39239C7.14231 4.001 8.45556 3 10 3V1ZM13.6293 2.36738C12.6615 1.51685 11.3899 1 10 1V3C10.8856 3 11.6922 3.32762 12.3091 3.86971L13.6293 2.36738ZM16.5 0C14.5874 0 12.9272 1.07421 12.0871 2.64751L13.8513 3.58958C14.3576 2.64153 15.3546 2 16.5 2V0ZM21.5 5C21.5 2.23858 19.2614 0 16.5 0V2C18.1569 2 19.5 3.34315 19.5 5H21.5Z" fill="#D1D1D6" mask="url(#path-3-inside-1_2189_3577)"/>
<path d="M16.322 8.25414C16.2873 8.57795 16.713 8.72746 16.8884 8.45302L17.171 8.01068C17.2398 7.90289 17.3681 7.84882 17.4933 7.87478L18.2876 8.03943C18.6373 8.11193 18.8098 7.63112 18.4938 7.46475L17.7224 7.05871C17.6154 7.00235 17.5512 6.88856 17.5583 6.76776L17.5884 6.25631C17.6079 5.92642 17.165 5.80127 17.0089 6.09255L16.7769 6.52553C16.718 6.6355 16.5986 6.69911 16.4745 6.68667L15.5049 6.58948C15.1537 6.55427 15.0285 7.04116 15.3531 7.17976L16.18 7.53286C16.3047 7.58609 16.38 7.71451 16.3655 7.84929L16.322 8.25414Z" fill="#D1D1D6"/>
</svg>
