<svg width="24" height="24" viewBox="0 0 24 24" fill="none" xmlns="http://www.w3.org/2000/svg">
<path fill-rule="evenodd" clip-rule="evenodd" d="M2.31934 16.6807C2.29299 16.6244 2.26675 16.5684 2.24087 16.5125C1.60482 15.1395 1.25 13.6102 1.25 12C1.25 6.06294 6.06294 1.25 12 1.25C17.9371 1.25 22.75 6.06294 22.75 12C22.75 17.9371 17.9371 22.75 12 22.75C10.786 22.75 9.72211 22.5765 8.72366 22.2194C7.83036 21.8998 7.46428 21.7705 7.35382 21.7445C6.68259 21.5866 6.0471 21.8925 5.41652 22.196C5.00937 22.392 4.60427 22.587 4.1929 22.6555C3.06842 22.8429 2.06787 21.9222 2.16118 20.7861C2.19452 20.3801 2.35166 20.0332 2.50977 19.6842C2.61162 19.4593 2.71389 19.2336 2.78372 18.9906C3.01855 18.1734 2.66113 17.4103 2.31934 16.6807ZM10.75 10C10.75 9.30964 11.3096 8.75 12 8.75C12.6904 8.75 13.25 9.30964 13.25 10V10.1213C13.25 10.485 13.1055 10.8338 12.8483 11.091L11.4697 12.4697C11.1768 12.7626 11.1768 13.2374 11.4697 13.5303C11.7626 13.8232 12.2374 13.8232 12.5303 13.5303L13.909 12.1517C14.4475 11.6132 14.75 10.8828 14.75 10.1213V10C14.75 8.48122 13.5188 7.25 12 7.25C10.4812 7.25 9.25 8.48122 9.25 10V10.5C9.25 10.9142 9.58579 11.25 10 11.25C10.4142 11.25 10.75 10.9142 10.75 10.5V10ZM12 14.75C11.3096 14.75 10.75 15.3096 10.75 16C10.75 16.6904 11.3096 17.25 12 17.25C12.6904 17.25 13.25 16.6904 13.25 16C13.25 15.3096 12.6904 14.75 12 14.75Z" fill="black"/>
</svg>
