<svg width="24" height="24" viewBox="0 0 24 24" fill="none" xmlns="http://www.w3.org/2000/svg">
<path fill-rule="evenodd" clip-rule="evenodd" d="M12 22C17.5228 22 22 17.5228 22 12C22 6.47715 17.5228 2 12 2C6.47715 2 2 6.47715 2 12C2 17.5228 6.47715 22 12 22ZM10.75 6C10.75 5.30964 11.3096 4.75 12 4.75C12.6904 4.75 13.25 5.30964 13.25 6C13.25 6.69036 12.6904 7.25 12 7.25C11.3096 7.25 10.75 6.69036 10.75 6ZM9.25 12C9.25 10.4812 10.4812 9.25 12 9.25C13.5188 9.25 14.75 10.4812 14.75 12C14.75 13.5188 13.5188 14.75 12 14.75C10.4812 14.75 9.25 13.5188 9.25 12ZM4.75 12C4.75 11.3096 5.30964 10.75 6 10.75C6.69036 10.75 7.25 11.3096 7.25 12C7.25 12.6904 6.69036 13.25 6 13.25C5.30964 13.25 4.75 12.6904 4.75 12ZM16.75 12C16.75 11.3096 17.3096 10.75 18 10.75C18.6904 10.75 19.25 11.3096 19.25 12C19.25 12.6904 18.6904 13.25 18 13.25C17.3096 13.25 16.75 12.6904 16.75 12ZM10.75 18C10.75 17.3096 11.3096 16.75 12 16.75C12.6904 16.75 13.25 17.3096 13.25 18C13.25 18.6904 12.6904 19.25 12 19.25C11.3096 19.25 10.75 18.6904 10.75 18Z" fill="black"/>
</svg>
